<svg xmlns="http://www.w3.org/2000/svg" viewBox="0 0 1641.68 2254.03"><defs><style>.cls-1,.cls-2,.cls-3{fill:#1aad8f;}.cls-1{fill-rule:evenodd;}.cls-3{font-size:600px;font-family:Rockwell-Bold, Rockwell;font-weight:700;}</style></defs><g id="レイヤー_2" data-name="レイヤー 2"><g id="レイヤー_2-2" data-name="レイヤー 2"><path class="cls-1" d="M761.45,1594.6C409.69,1594.6,0,1337.27,0,891.51,0,470.06,306.72,243.12,572.71,243.12c75.06,0,160.86,18.25,188.74,34.46,27.89-16.21,113.7-34.46,188.75-34.46,268.14,0,572.7,226.94,572.7,648.39,0,445.75-409.68,703.09-761.45,703.09Zm0-172.23c300.29,0,577-214.78,577-545,0-297.86-227.35-478.18-396.8-464l27.86,26.33c40.77,42.55,107.26,147.92,107.26,263.41,0,186.41-152.29,303.93-315.31,303.93-160.86,0-313.16-117.52-313.16-303.93,0-115.49,64.34-220.84,107.26-263.41l27.87-26.33c-169.44-14.18-399,166.15-399,464,0,330.27,278.86,545,577,545Zm0-583.54c62.21,0,133-40.53,133-152,0-107.4-77.23-194.52-133-231-53.61,36.48-133,123.6-133,231C628.48,798.3,701.4,838.83,761.45,838.83Z"/><circle class="cls-2" cx="361.29" cy="1020.31" r="63.33"/><circle class="cls-2" cx="1134.2" cy="1020.31" r="63.33"/><path class="cls-1" d="M848.34,1150.8c-3-17.63-42.92-41.87-81.93-41.87-38.84-4.13-70.89,13.82-92.69,59.18-19.72,59.17-5.11,95.59,16.48,118.55s54,32.67,81.54,32.67c46.85,0,115.29-55.89,93.1-65.75-18,8.27-50.73,48.66-108,22.77-22.19-17.06-32.45-31.8-35.65-68.34s14.65-79.16,47.23-76.6c20.35,0,52.83,11.26,62.82,15.7S851.33,1168.42,848.34,1150.8Z"/><polygon class="cls-1" points="1287.41 185.3 1418.04 53.17 1273.76 0 1287.41 185.3"/><polygon class="cls-1" points="1411.02 214.64 1586.36 164.28 1502.22 56.65 1411.02 214.64"/><polygon class="cls-1" points="1507.12 307.49 1641.68 290 1589.55 199.7 1507.12 307.49"/><text class="cls-3" transform="translate(71.79 2101.1)">YKT</text></g></g></svg>